{"accessors":[{"bufferView":0,"byteOffset":0,"componentType":5126,"count":4738,"max":[10.0,21.95789909362793,21.95789909362793],"min":[-3.552710078910475e-15,-21.95789909362793,-21.95789909362793],"type":"VEC3"},{"bufferView":1,"byteOffset":0,"componentType":5126,"count":4738,"max":[1.0,1.0,1.0],"min":[-1.0,-1.0,-1.0],"type":"VEC3"},{"bufferView":2,"byteOffset":0,"componentType":5126,"count":4738,"max":[1.0,1.0],"min":[0.0,0.0],"type":"VEC2"},{"bufferView":3,"byteOffset":0,"componentType":5125,"count":12288,"type":"SCALAR"}],"asset":{"copyright":"KiM GmbH","extras":{"CADClick_SWAP_AXIS":true},"generator":"CADClick glTF Export 1.7.8.0","version":"2.0"},"bufferViews":[{"buffer":0,"byteLength":56856,"byteOffset":0},{"buffer":0,"byteLength":56856,"byteOffset":56856},{"buffer":0,"byteLength":37904,"byteOffset":113712},{"buffer":0,"byteLength":49152,"byteOffset":151616}],"buffers":[{"byteLength":200768,"uri":"data:application/octet-stream;base64,"}],"materials":[{"alphaMode":"OPAQUE","doubleSided":true,"name":"M_d828296_0_0","pbrMetallicRoughness":{"baseColorFactor":[0.22322797775268555,0.22322797775268555,0.304987370967865,1.0],"metallicFactor":1.0,"roughnessFactor":0.0}},{"alphaMode":"OPAQUE","doubleSided":true,"name":"M_dFFFF80_0_0","pbrMetallicRoughness":{"baseColorFactor":[1.0,1.0,0.2158605307340622,1.0],"metallicFactor":1.0,"roughnessFactor":0.0}}],"meshes":[{"primitives":[{"attributes":{"NORMAL":1,"POSITION":0,"TEXCOORD_0":2},"indices":3,"material":1,"mode":4}]}],"nodes":[{"mesh":0,"name":"2025_11_22_05_41_47_0208"},{"children":[0]}],"scene":0,"scenes":[{"name":"10301_para_engranajes_1","nodes":[1]}]}